<?xml version="1.0" encoding="utf-8"?>
<!-- Generator: Adobe Illustrator 24.3.0, SVG Export Plug-In . SVG Version: 6.00 Build 0)  -->
<svg version="1.1" id="Layer_1" xmlns="http://www.w3.org/2000/svg" xmlns:xlink="http://www.w3.org/1999/xlink" x="0px" y="0px"
	 viewBox="0 0 176 40" style="enable-background:new 0 0 176 40;" xml:space="preserve">
<style type="text/css">
	.st0{fill-rule:evenodd;clip-rule:evenodd;fill:#FFFFFF;}
	.st1{fill:#FFFFFF;}
</style>
<path class="st0" d="M15,28c-2.8,0-5-2.2-5-5V0H0v23c0,8.3,6.7,15,15,15h11V28H15z M45,10c-5,0-9,4-9,9s4,9,9,9s9-4,9-9S50,10,45,10
	z M26,19C26,8.5,34.5,0,45,0s19,8.5,19,19s-8.5,19-19,19S26,29.5,26,19z M153,10c-5,0-9,4-9,9s4,9,9,9s9-4,9-9S158,10,153,10z
	 M134,19c0-10.5,8.5-19,19-19s19,8.5,19,19s-8.5,19-19,19S134,29.5,134,19z M85,0C74.5,0,66,8.5,66,19s8.5,19,19,19h28
	c2,0,3.9-0.3,5.7-0.9L124,40l5.8-10.8c1.5-2.8,2.2-5.8,2.2-8.9V19c0-10.5-8.5-19-19-19H85z M122,19c0-5-4-9-9-9H85c-5,0-9,4-9,9
	s4,9,9,9h28C117.9,28,122,24,122,19L122,19z"/>
<path class="st1" d="M176,2.5c0,1.4-1.1,2.5-2.5,2.5S171,3.9,171,2.5s1.1-2.5,2.5-2.5S176,1.1,176,2.5z"/>
</svg>
